<svg width="59" height="59" fill="none" xmlns="http://www.w3.org/2000/svg"><g clip-path="url(#a)"><path d="M24.74 46.42a5.195 5.195 0 00-5.19 5.189 5.195 5.195 0 005.19 5.188 5.195 5.195 0 005.188-5.188 5.195 5.195 0 00-5.189-5.19zm0 7.48a2.294 2.294 0 01-2.292-2.292 2.294 2.294 0 012.291-2.291 2.294 2.294 0 012.292 2.291 2.294 2.294 0 01-2.292 2.292zm18.2-7.48a5.195 5.195 0 00-5.189 5.189 5.195 5.195 0 005.189 5.188 5.195 5.195 0 005.189-5.188 5.195 5.195 0 00-5.19-5.19zm0 7.48a2.294 2.294 0 01-2.292-2.292 2.294 2.294 0 012.292-2.291 2.294 2.294 0 012.291 2.291A2.294 2.294 0 0142.94 53.9z" fill="#F81D3D"/><path d="M44.217 19.1H23.458a1.449 1.449 0 100 2.898h20.76a1.449 1.449 0 100-2.897zm-1.13 7.523H24.588a1.449 1.449 0 100 2.897h18.5a1.449 1.449 0 000-2.897z" fill="#2A2A2A"/><path d="M58.348 12.646a2.886 2.886 0 00-2.246-1.067H10.98l-.911-4.423a2.9 2.9 0 00-1.684-2.073l-6.358-2.76A1.448 1.448 0 10.872 4.98L7.23 7.74l7.01 34.025a2.908 2.908 0 002.837 2.312h34.705a1.449 1.449 0 100-2.897H17.077l-.852-4.139H52.05a2.908 2.908 0 002.838-2.312L58.94 15.06a2.886 2.886 0 00-.592-2.415zM52.05 34.144H15.628l-4.052-19.667h44.526L52.05 34.144z" fill="#2A2A2A"/></g><defs><clipPath id="a"><path fill="#fff" d="M0 0h59v59H0z"/></clipPath></defs></svg>