<svg width="59" height="59" fill="none" xmlns="http://www.w3.org/2000/svg"><path d="M32.611 15.958a6.23 6.23 0 00-6.222-6.222 6.23 6.23 0 00-6.223 6.222 6.23 6.23 0 006.223 6.223 6.23 6.23 0 006.222-6.223zm-10.14 0a3.922 3.922 0 013.918-3.918 3.922 3.922 0 013.918 3.918 3.922 3.922 0 01-3.918 3.918 3.922 3.922 0 01-3.918-3.918zm-6.137 14.901a6.181 6.181 0 003.093-3.621 6.18 6.18 0 00-.374-4.747 6.181 6.181 0 00-3.62-3.092 6.18 6.18 0 00-4.747.373 6.181 6.181 0 00-3.093 3.62 6.18 6.18 0 00.374 4.748 6.181 6.181 0 003.62 3.092 6.192 6.192 0 004.747-.374zM12.3 29.04a3.89 3.89 0 01-2.28-1.947 3.89 3.89 0 01-.235-2.988 3.89 3.89 0 011.947-2.28 3.9 3.9 0 012.988-.235A3.891 3.891 0 0117 23.537a3.89 3.89 0 01.235 2.989 3.891 3.891 0 01-1.947 2.28 3.892 3.892 0 01-2.989.234zm2.472 16.45a6.19 6.19 0 003.649 1.185 6.219 6.219 0 005.042-2.562 6.182 6.182 0 001.112-4.631 6.181 6.181 0 00-2.489-4.06 6.181 6.181 0 00-4.63-1.112 6.18 6.18 0 00-4.061 2.488 6.23 6.23 0 001.377 8.691zm.488-7.337a3.892 3.892 0 012.556-1.567 3.89 3.89 0 012.916.7 3.922 3.922 0 01.867 5.472 3.922 3.922 0 01-5.473.867 3.922 3.922 0 01-.866-5.472zm19.096 8.522a6.19 6.19 0 003.65-1.186 6.23 6.23 0 001.376-8.691 6.182 6.182 0 00-4.06-2.488 6.182 6.182 0 00-4.631 1.111 6.181 6.181 0 00-2.488 4.06 6.182 6.182 0 001.111 4.632 6.218 6.218 0 005.042 2.562zm-2.31-9.389a3.89 3.89 0 012.915-.7 3.892 3.892 0 012.557 1.567 3.922 3.922 0 01-.867 5.472 3.922 3.922 0 01-5.472-.867 3.922 3.922 0 01.866-5.472zm5.299-17.888a6.18 6.18 0 00-3.62 3.093 6.18 6.18 0 00-.374 4.747 6.18 6.18 0 003.092 3.62 6.194 6.194 0 004.747.374 6.18 6.18 0 003.62-3.092 6.18 6.18 0 00.374-4.747 6.181 6.181 0 00-3.092-3.62 6.182 6.182 0 00-4.747-.375zm3.7 2.428a3.89 3.89 0 011.947 2.28 3.89 3.89 0 01-.235 2.987 3.89 3.89 0 01-2.28 1.947 3.891 3.891 0 01-2.988-.235 3.891 3.891 0 01-1.946-2.28 3.89 3.89 0 01.235-2.988 3.89 3.89 0 012.28-1.947 3.898 3.898 0 012.988.235z" fill="#F81D3D"/><path d="M30.34 29.5a3.956 3.956 0 00-3.951-3.952 3.956 3.956 0 00-3.952 3.952 3.956 3.956 0 003.952 3.952A3.956 3.956 0 0030.34 29.5zm-5.598 0c0-.908.738-1.647 1.647-1.647.908 0 1.647.739 1.647 1.647s-.74 1.647-1.647 1.647a1.649 1.649 0 01-1.647-1.647z" fill="#000"/><path d="M58.663 50.905a6.854 6.854 0 00-4.879-2.02 6.854 6.854 0 00-4.878 2.02 9.086 9.086 0 01-6.467 2.679h-5.234a26.384 26.384 0 007.843-5.424c4.984-4.985 7.73-11.611 7.73-18.66 0-5.156-1.488-10.15-4.301-14.444a1.152 1.152 0 10-1.928 1.263A23.984 23.984 0 0150.473 29.5c0 13.28-10.804 24.084-24.084 24.084S2.305 42.78 2.305 29.5 13.109 5.416 26.389 5.416c4.713 0 9.278 1.361 13.2 3.936a1.152 1.152 0 101.265-1.926A26.282 26.282 0 0026.389 3.11c-7.049 0-13.676 2.745-18.66 7.73C2.745 15.824 0 22.45 0 29.5c0 7.049 2.745 13.675 7.73 18.66 4.983 4.984 11.61 7.729 18.659 7.729h16.05c3.059 0 5.934-1.191 8.097-3.354a4.564 4.564 0 013.248-1.346c1.227 0 2.381.478 3.249 1.346a1.153 1.153 0 001.63-1.63z" fill="#000"/><path d="M44.242 12.815c.303 0 .6-.122.815-.336.214-.216.337-.512.337-.815 0-.304-.123-.6-.337-.816a1.16 1.16 0 00-.815-.336c-.303 0-.6.122-.815.336a1.164 1.164 0 00-.337.816c0 .303.123.6.337.815.215.214.512.336.815.336z" fill="#000"/></svg>