<svg width="55" height="55" fill="none" xmlns="http://www.w3.org/2000/svg"><g clip-path="url(#a)"><path d="M15.33 8.816h-3.928c-.62 0-1.122.503-1.122 1.122v6.174c0 .62.502 1.122 1.122 1.122h3.929c.62 0 1.122-.502 1.122-1.122V9.938c0-.62-.502-1.122-1.122-1.122zm-1.122 6.173h-1.683v-3.928h1.683v3.928zm8.98-6.173h-3.929c-.62 0-1.122.503-1.122 1.122v6.174c0 .62.503 1.122 1.122 1.122h3.929c.62 0 1.122-.502 1.122-1.122V9.938c0-.62-.502-1.122-1.122-1.122zm-1.123 6.173h-1.683v-3.928h1.683v3.928z" fill="#F81D3D"/><path d="M15.33 19.816h-3.928c-.62 0-1.122.502-1.122 1.122v6.174c0 .62.502 1.122 1.122 1.122h3.929c.62 0 1.122-.503 1.122-1.122v-6.174c0-.62-.502-1.122-1.122-1.122zm-1.122 6.173h-1.683v-3.928h1.683v3.928zm8.98-6.173h-3.929c-.62 0-1.122.502-1.122 1.122v6.174c0 .62.503 1.122 1.122 1.122h3.929c.62 0 1.122-.503 1.122-1.122v-6.174c0-.62-.502-1.122-1.122-1.122zm-1.123 6.173h-1.683v-3.928h1.683v3.928z" fill="#2A2A2A"/><path d="M15.33 30.816h-3.928c-.62 0-1.122.503-1.122 1.122v6.174c0 .62.502 1.122 1.122 1.122h3.929c.62 0 1.122-.502 1.122-1.122v-6.174c0-.62-.502-1.122-1.122-1.122zm-1.122 6.174h-1.683v-3.93h1.683v3.93zm8.98-6.174h-3.929c-.62 0-1.122.503-1.122 1.122v6.174c0 .62.503 1.122 1.122 1.122h3.929c.62 0 1.122-.502 1.122-1.122v-6.174c0-.62-.502-1.122-1.122-1.122zm-1.123 6.174h-1.683v-3.93h1.683v3.93z" fill="#F81D3D"/><path d="M15.33 41.816h-3.928c-.62 0-1.122.502-1.122 1.122v6.174c0 .62.502 1.122 1.122 1.122h3.929c.62 0 1.122-.502 1.122-1.122v-6.174c0-.62-.502-1.122-1.122-1.122zm-1.122 6.173h-1.683v-3.928h1.683v3.928zm8.98-6.173h-3.929c-.62 0-1.122.502-1.122 1.122v6.174c0 .62.503 1.122 1.122 1.122h3.929c.62 0 1.122-.502 1.122-1.122v-6.174c0-.62-.502-1.122-1.122-1.122zm-1.123 6.173h-1.683v-3.928h1.683v3.928z" fill="#2A2A2A"/><path d="M43.023 45.384h-.02a1.123 1.123 0 000 2.245h.02a1.123 1.123 0 000-2.245z" fill="#000"/><path d="M43.023 18.916h-.02a1.123 1.123 0 000 2.244h.02a1.123 1.123 0 000-2.244z" fill="#F81D3D"/><path d="M43.023 24.21h-.02a1.123 1.123 0 000 2.244h.02a1.123 1.123 0 000-2.245z" fill="#000"/><path d="M43.023 29.503h-.02a1.123 1.123 0 000 2.245h.02a1.123 1.123 0 000-2.245z" fill="#F81D3D"/><path d="M43.023 34.797h-.02a1.123 1.123 0 000 2.245h.02a1.123 1.123 0 000-2.245z" fill="#000"/><path d="M43.023 40.09h-.02a1.123 1.123 0 000 2.245h.02a1.123 1.123 0 000-2.245z" fill="#F81D3D"/><path d="M60.093 56.592H56.48v-40.81c0-.665-.591-1.204-1.32-1.204H33.244V6.382c0-.559-.42-1.044-1.016-1.172L8.205.032A1.42 1.42 0 007.083.26a1.166 1.166 0 00-.501.944v55.388H3.733c-.729 0-1.32.539-1.32 1.204 0 .665.591 1.204 1.32 1.204h56.36c.73 0 1.32-.54 1.32-1.204 0-.665-.59-1.204-1.32-1.204zm-29.489-40.81v40.81H9.222V2.726l21.382 4.608v8.448zm23.235 40.81H33.244v-5.499h12.363c.73 0 1.32-.539 1.32-1.204 0-.665-.59-1.204-1.32-1.204H33.244v-3.27h12.363c.73 0 1.32-.54 1.32-1.204 0-.665-.59-1.204-1.32-1.204H33.244v-3.271h12.363c.73 0 1.32-.54 1.32-1.204 0-.665-.59-1.204-1.32-1.204H33.244v-3.271h12.363c.73 0 1.32-.54 1.32-1.204 0-.665-.59-1.204-1.32-1.204H33.244v-3.27h12.363c.73 0 1.32-.54 1.32-1.205s-.59-1.204-1.32-1.204H33.244V22.7h12.363c.73 0 1.32-.54 1.32-1.205s-.59-1.204-1.32-1.204H33.244v-3.305h20.595v39.606z" fill="#000"/></g><defs><clipPath id="a"><path fill="#fff" d="M0 0h55v55H0z"/></clipPath></defs></svg>