<svg width="59" height="59" fill="none" xmlns="http://www.w3.org/2000/svg"><path d="M59 22.45a1.175 1.175 0 00-2.35 0 2.196 2.196 0 01-1.598 2.11c-1.254-2.674-3.295-5.116-6.036-7.165-3.62-2.705-8.142-4.478-13.048-5.161a6.331 6.331 0 001.82-4.445 6.36 6.36 0 00-6.354-6.354A6.36 6.36 0 0025.08 7.79c0 1.732.698 3.304 1.827 4.452a29.87 29.87 0 00-7.313 2.024 8.948 8.948 0 00-9.547-1.374 1.175 1.175 0 00-.374 1.87l3.279 3.53c-1.888 1.588-3.449 3.414-4.576 5.355H2.51A2.514 2.514 0 000 26.156v6.907a2.5 2.5 0 001.758 2.395l5.27 1.656c1.481 4.245 4.925 6.433 7.238 7.903l.267.169 1.606 11.368c.082.58.578 1.011 1.164 1.011h5.552c.586 0 1.082-.431 1.164-1.01l1.002-7.09c2.066.407 4.197.613 6.35.613a32.8 32.8 0 006.715-.686l1.012 7.162c.082.58.578 1.011 1.164 1.011h5.552c.586 0 1.082-.431 1.164-1.01l1.65-11.672c5.013-3.592 7.876-8.627 7.876-13.886a14.9 14.9 0 00-.614-4.236A4.55 4.55 0 0059 22.45zM31.434 3.786a4.008 4.008 0 014.003 4.002 4.008 4.008 0 01-4.003 4.004 4.008 4.008 0 01-4.003-4.004 4.007 4.007 0 014.003-4.002zm15.438 39.457a1.175 1.175 0 00-.5.806l-1.578 11.166h-3.51l-1.05-7.421a1.175 1.175 0 00-1.452-.975 30.187 30.187 0 01-7.41.909c-2.41 0-4.786-.278-7.063-.824a1.175 1.175 0 00-1.438.978l-1.036 7.333h-3.511l-1.54-10.89a1.175 1.175 0 00-.52-.82 63.77 63.77 0 00-.737-.473c-2.377-1.51-5.334-3.388-6.437-7.184a1.176 1.176 0 00-.776-.794l-5.851-1.839a.16.16 0 01-.113-.152v-6.907a.16.16 0 01.16-.16h6.558c.437 0 .837-.242 1.04-.628 1.164-2.212 2.988-4.29 5.275-6.01a1.176 1.176 0 00.154-1.738l-2.871-3.09a6.592 6.592 0 015.837 1.938c.346.36.883.464 1.338.256 3.518-1.607 7.506-2.457 11.53-2.457 12.563 0 22.783 7.505 22.783 16.73 0 4.62-2.654 9.082-7.282 12.246z" fill="#000"/><path d="M14.527 22.523c-.65 0-1.176.526-1.176 1.175v1.372a1.175 1.175 0 002.35 0v-1.372c0-.65-.525-1.175-1.174-1.175zm21.337-6.489h-.749a1.175 1.175 0 100 2.35h.749a1.175 1.175 0 000-2.35zm-5.491 0h-3.992a1.175 1.175 0 100 2.35h3.992a1.175 1.175 0 000-2.35z" fill="#F81D3D"/></svg>