<svg width="59" height="59" fill="none" xmlns="http://www.w3.org/2000/svg"><g clip-path="url(#a)"><path d="M27.187 2.305c.635 0 1.153-.518 1.153-1.153S27.822 0 27.187 0a1.153 1.153 0 000 2.305z" fill="#F81D3D"/><path d="M49.09 25.121c.636 0 1.152-.516 1.152-1.152v-6.914c0-.637-.516-1.153-1.152-1.153h-3.457v-.23a6.898 6.898 0 00-2.29-5.135c-.066-.114-1.337-1.213-2.352-2.81-1.288-2.028-1.943-4.24-1.944-6.575 0-.304-.122-.6-.336-.814A1.161 1.161 0 0037.896 0h-5.523a1.154 1.154 0 000 2.305h4.416c.098 1.237.36 2.46.778 3.636.318.894.726 1.957 1.215 2.819l-.063-.002H15.672l-.064.001c.49-.86.898-1.925 1.215-2.818a14.3 14.3 0 00.78-3.636h4.399a1.154 1.154 0 000-2.305h-5.507c-.303 0-.6.123-.815.338a1.161 1.161 0 00-.338.814c0 2.335-.654 4.547-1.943 6.575-1.015 1.597-2.286 2.696-2.352 2.81a6.898 6.898 0 00-2.29 5.135v27.656c0 2.036.886 3.87 2.291 5.135.066.114 4.295 3.765 4.295 9.385 0 .636.516 1.152 1.152 1.152h21.4c.637 0 1.153-.516 1.153-1.152 0-5.62 4.23-9.27 4.294-9.384a6.897 6.897 0 002.29-5.136v-.922h1.153a3.46 3.46 0 003.457-3.457v-2.304a3.46 3.46 0 00-3.457-3.458h-1.152v-8.066h3.457zm-1.153-6.914v4.61h-2.304v-4.61h2.304zm-4.609 25.121a4.615 4.615 0 01-4.61 4.61H15.673a4.615 4.615 0 01-4.61-4.61V15.672a4.615 4.615 0 014.61-4.61H38.72a4.615 4.615 0 014.61 4.61v27.656zm-6.54 13.367H17.603a14.453 14.453 0 00-2.127-6.458c.065.002.13.005.197.005H38.72c.066 0 .131-.003.197-.005a14.453 14.453 0 00-2.127 6.458zm9.997-21.203c.636 0 1.153.517 1.153 1.153v2.304c0 .636-.517 1.153-1.153 1.153h-1.152v-4.61h1.152z" fill="#000"/><path d="M29.788 24.264c-1.005 0-1.92.398-2.593 1.045a3.732 3.732 0 00-2.593-1.045 3.75 3.75 0 00-3.745 3.745c0 .878.312 1.733.877 2.407l.011.013 4.579 5.292a1.153 1.153 0 001.743 0l4.578-5.292.012-.014a3.75 3.75 0 00.876-2.406 3.75 3.75 0 00-3.745-3.745zm1.108 4.664l-3.7 4.277-3.702-4.277a1.442 1.442 0 011.108-2.36c.795 0 1.441.647 1.441 1.44a1.152 1.152 0 002.305 0c0-.793.646-1.44 1.44-1.44a1.442 1.442 0 011.108 2.36z" fill="#F81D3D"/></g><defs><clipPath id="a"><path fill="#fff" d="M0 0h59v59H0z"/></clipPath></defs></svg>