<svg width="59" height="59" fill="none" xmlns="http://www.w3.org/2000/svg"><path d="M49.859 34.881l-.002-.006-8.879-24.891a1.152 1.152 0 00-.835-.738L19.4 4.636a1.152 1.152 0 00-1.347.773l-9.499 29.5-.001.007c-.031.097-.084 1.428-.084 1.96 0 2.1.155 4.194.46 6.225a38.745 38.745 0 001.32 5.777 34.176 34.176 0 002.09 5.192 29.048 29.048 0 002.774 4.475c.22.29.554.455.917.455h26.361c.365 0 .699-.166.918-.455 1.785-2.35 3.252-5.1 4.361-8.172a1.154 1.154 0 00-1.084-1.545c-.484 0-.92.306-1.083.762a31.83 31.83 0 01-1.021 2.496H13.948c-2.047-4.465-3.176-9.773-3.174-15.211l.003-.461h36.87l.002.46c0 .97-.034 1.946-.103 2.901a1.154 1.154 0 001.066 1.233 1.158 1.158 0 001.231-1.067c.074-1.01.111-2.04.111-3.066 0-.538-.057-1.886-.095-1.994zm-6.562 19.51a26.06 26.06 0 01-1.484 2.304H16.61a25.672 25.672 0 01-1.481-2.304h28.167zM11.234 34.109l8.692-26.994 19.096 4.243 8.115 22.751H11.234z" fill="#000"/><path d="M40.16 0a1.152 1.152 0 100 2.305c4.447 0 8.066 3.618 8.066 8.066a1.152 1.152 0 102.304 0C50.53 4.652 45.878 0 40.16 0z" fill="#F81D3D"/><path d="M43.501 10.371a1.152 1.152 0 102.305 0 5.768 5.768 0 00-5.762-5.762 1.152 1.152 0 000 2.305 3.461 3.461 0 013.457 3.457zm4.486 35.773a1.152 1.152 0 100-2.304 1.152 1.152 0 000 2.304z" fill="#F81D3D"/></svg>