<svg width="59" height="59" fill="none" xmlns="http://www.w3.org/2000/svg"><path d="M29.5 34.94c-6.193 0-11.232 5.04-11.232 11.233 0 3.518 1.627 6.663 4.167 8.724.048.046.1.088.156.125a11.176 11.176 0 006.909 2.382c2.603 0 5.002-.89 6.909-2.382.056-.037.108-.08.156-.125a11.215 11.215 0 004.167-8.724c0-6.194-5.039-11.232-11.232-11.232zm0 20.16a8.873 8.873 0 01-4.931-1.49c.758-1.947 2.723-3.297 4.931-3.297s4.173 1.35 4.931 3.296A8.874 8.874 0 0129.5 55.1zm-2.03-8.928c0-1.012.824-1.836 1.836-1.836s1.836.824 1.836 1.837a1.838 1.838 0 01-1.836 1.835 1.838 1.838 0 01-1.836-1.836zm8.765 5.85a7.574 7.574 0 00-3.627-3.355 4.119 4.119 0 00.839-2.494 4.145 4.145 0 00-4.141-4.141 4.145 4.145 0 00-4.14 4.14c0 .997.353 1.913.942 2.628a7.56 7.56 0 00-3.343 3.222 8.886 8.886 0 01-2.192-5.85c0-4.922 4.005-8.926 8.927-8.926s8.927 4.004 8.927 8.927a8.886 8.886 0 01-2.192 5.849zM11.232 1.596C5.039 1.596 0 6.634 0 12.827c0 3.519 1.627 6.664 4.167 8.725.048.046.1.087.156.125a11.176 11.176 0 006.909 2.382c2.603 0 5.002-.89 6.909-2.383.056-.037.107-.078.155-.124a11.215 11.215 0 004.167-8.725c0-6.193-5.038-11.231-11.231-11.231zm0 20.159a8.876 8.876 0 01-4.931-1.49c.757-1.947 2.723-3.297 4.93-3.297 2.208 0 4.174 1.35 4.932 3.296a8.874 8.874 0 01-4.931 1.49zm-2.03-8.927c0-1.013.823-1.836 1.836-1.836 1.012 0 1.836.823 1.836 1.835a1.838 1.838 0 01-1.836 1.837 1.838 1.838 0 01-1.836-1.836zm8.764 5.849a7.574 7.574 0 00-3.626-3.355 4.118 4.118 0 00.838-2.495 4.145 4.145 0 00-4.14-4.14 4.145 4.145 0 00-4.141 4.14c0 .997.354 1.913.943 2.628a7.56 7.56 0 00-3.343 3.222 8.887 8.887 0 01-2.192-5.85c0-4.922 4.004-8.927 8.927-8.927 4.922 0 8.927 4.005 8.927 8.927a8.886 8.886 0 01-2.192 5.85zM47.768 1.596c-6.193 0-11.231 5.038-11.231 11.231 0 3.519 1.626 6.664 4.167 8.725.048.046.1.087.155.125a11.176 11.176 0 006.91 2.382c2.602 0 5.002-.89 6.908-2.382.056-.038.108-.08.156-.125A11.214 11.214 0 0059 12.827c0-6.193-5.038-11.231-11.232-11.231zm0 20.159a8.876 8.876 0 01-4.93-1.49c.757-1.947 2.722-3.297 4.93-3.297 2.208 0 4.173 1.35 4.931 3.296a8.873 8.873 0 01-4.93 1.49zm-2.03-8.927a1.837 1.837 0 013.672-.001 1.838 1.838 0 01-1.836 1.837 1.838 1.838 0 01-1.836-1.836zm8.765 5.849a7.573 7.573 0 00-3.627-3.355 4.118 4.118 0 00.839-2.495 4.145 4.145 0 00-4.14-4.14 4.145 4.145 0 00-4.141 4.14c0 .997.354 1.913.943 2.628a7.56 7.56 0 00-3.344 3.222 8.887 8.887 0 01-2.192-5.85c0-4.922 4.005-8.927 8.927-8.927 4.923 0 8.927 4.005 8.927 8.927a8.886 8.886 0 01-2.192 5.85z" fill="#2A2A2A"/><path d="M16.245 40.958l-.014-.012a1.152 1.152 0 00-1.498 1.752l.014.011a1.15 1.15 0 001.624-.135 1.152 1.152 0 00-.126-1.616zm-2.248-2.311a1.15 1.15 0 00-1.633-.156 1.155 1.155 0 00-.145 1.623l.002.002a1.15 1.15 0 001.622.154c.49-.406.56-1.132.154-1.623zm-1.868-2.642l-.013-.023a1.155 1.155 0 00-1.584-.393 1.15 1.15 0 00-.393 1.58l.002.001a1.152 1.152 0 101.988-1.165zm-2.39-6.009a1.152 1.152 0 10-2.253.485l.005.024a1.154 1.154 0 001.38.869 1.152 1.152 0 00.868-1.378zm.955 3.097l-.006-.016a1.152 1.152 0 00-2.138.862l.002.005a1.153 1.153 0 002.142-.85zm33.699 7.989a1.153 1.153 0 00-1.624-.136l-.014.012a1.152 1.152 0 101.512 1.74 1.152 1.152 0 00.126-1.616zm5.419-8.642a1.152 1.152 0 00-1.5.637l-.006.016a1.147 1.147 0 001.07 1.572c.457 0 .892-.276 1.074-.726a1.152 1.152 0 00-.638-1.5zm-3.171 6.052a1.152 1.152 0 00-1.624.138l-.014.017a1.148 1.148 0 00.153 1.615 1.16 1.16 0 001.623-.146 1.152 1.152 0 00-.138-1.624zm3.994-9.376a1.155 1.155 0 00-1.373.876v.002a1.152 1.152 0 102.252.487 1.15 1.15 0 00-.88-1.365zm-2.168 6.474a1.153 1.153 0 00-1.582.392l-.014.023a1.154 1.154 0 00.993 1.737c.395 0 .78-.203.994-.57a1.152 1.152 0 00-.391-1.581zm2.463-9.886a1.152 1.152 0 00-1.214 1.087v.005a1.15 1.15 0 001.15 1.213c.608 0 1.117-.478 1.15-1.092a1.151 1.151 0 00-1.085-1.213zM36.67 3.678l-.01-.003a1.152 1.152 0 10-.71 2.193l.012.003a1.151 1.151 0 10.708-2.193zm-3.541-.832l-.03-.004a1.155 1.155 0 00-1.312.972 1.15 1.15 0 00.969 1.307 1.152 1.152 0 00.373-2.274zm-3.643-.26h-.028a1.155 1.155 0 00-1.138 1.17 1.15 1.15 0 001.149 1.135h.017a1.152 1.152 0 000-2.305zM23.75 4.452a1.152 1.152 0 00-1.438-.768l-.016.005a1.15 1.15 0 00-.759 1.439 1.154 1.154 0 001.444.761c.609-.184.953-.828.768-1.437zm3.422-.595a1.15 1.15 0 00-1.319-.954l.168 1.14-.17-1.14a1.153 1.153 0 00.34 2.28l.025-.004a1.154 1.154 0 00.956-1.322zM9.26 26.54a1.152 1.152 0 10-2.253.486l.005.024a1.154 1.154 0 001.38.869 1.152 1.152 0 00.868-1.378z" fill="#F81D3D"/></svg>