<svg width="59" height="59" fill="none" xmlns="http://www.w3.org/2000/svg"><g clip-path="url(#a)"><path d="M57.442 34.532h-1.688l-4.182-14.131a5.429 5.429 0 00-5.175-3.866h-3.924a.865.865 0 100 1.73h3.924a3.69 3.69 0 013.517 2.627l4.036 13.64H5.05l4.036-13.64a3.689 3.689 0 013.517-2.628h25.841a.865.865 0 100-1.73h-25.84a5.429 5.429 0 00-5.176 3.867L3.246 34.532H1.558A1.56 1.56 0 000 36.091v4.816c0 .86.699 1.558 1.558 1.558h9.665a.865.865 0 100-1.73H1.73v-4.473h55.54v4.474H15.24a.865.865 0 100 1.73h42.202A1.56 1.56 0 0059 40.906V36.09a1.56 1.56 0 00-1.558-1.559z" fill="#000"/><path d="M37.073 22.795c0-.956-.778-1.733-1.733-1.733h-2.735c-.956 0-1.734.777-1.734 1.733v2.739H28.13v-2.739c0-.956-.777-1.733-1.733-1.733H23.66c-.956 0-1.734.777-1.734 1.733v2.739H19.19c-.956 0-1.734.777-1.734 1.733v2.735c0 .956.778 1.733 1.734 1.733h2.735c.956 0 1.733-.777 1.733-1.733v-2.739H26.4v2.74c0 .955.778 1.732 1.734 1.732h2.735c.956 0 1.733-.777 1.733-1.733v-2.739h2.743v2.74c0 .955.777 1.732 1.733 1.732h2.735c.956 0 1.733-.777 1.733-1.733v-2.735c0-.956-.777-1.733-1.733-1.733h-2.738v-2.739h-.001zm-15.15 7.21h-2.735l-.003-.003.003-2.739h2.738l-.003 2.743zm1.738-7.214l2.738.004v2.739h-2.741l.002-2.743zm7.206 7.215h-2.735l-.003-2.743h2.741l-.003 2.743zm1.738-7.215l2.738.004v2.739h-2.741l.003-2.743zm7.21 4.476l-.003 2.739h-2.735l-.004-2.742 2.742.003z" fill="#F81D3D"/></g><defs><clipPath id="a"><path fill="#fff" d="M0 0h59v59H0z"/></clipPath></defs></svg>